<?xml version="1.0" encoding="UTF-8"?>
<svg xmlns="http://www.w3.org/2000/svg" xmlns:xlink="http://www.w3.org/1999/xlink" width="1920" height="1080" viewBox="0 0 1920 1080">
<defs>
<g>
<g id="glyph-0-0">
<path d="M 1.691406 -0.742188 L 0.644531 -0.742188 L 0.429688 -0.160156 L 0.734375 -0.160156 C 0.773438 -0.160156 0.800781 -0.152344 0.816406 -0.136719 C 0.832031 -0.125 0.839844 -0.105469 0.839844 -0.078125 C 0.839844 -0.0585938 0.832031 -0.0390625 0.816406 -0.0234375 C 0.800781 -0.0078125 0.773438 0 0.734375 0 L 0.136719 0 C 0.101562 0 0.0742188 -0.0078125 0.0585938 -0.0234375 C 0.0390625 -0.0390625 0.03125 -0.0585938 0.03125 -0.078125 C 0.03125 -0.105469 0.0390625 -0.125 0.0585938 -0.136719 C 0.0742188 -0.152344 0.101562 -0.160156 0.136719 -0.160156 L 0.261719 -0.160156 L 0.964844 -2.0625 L 0.496094 -2.0625 C 0.457031 -2.0625 0.429688 -2.070312 0.414062 -2.085938 C 0.398438 -2.097656 0.390625 -2.117188 0.390625 -2.140625 C 0.390625 -2.167969 0.398438 -2.183594 0.414062 -2.199219 C 0.429688 -2.214844 0.457031 -2.222656 0.496094 -2.222656 L 1.300781 -2.222656 L 2.078125 -0.160156 L 2.199219 -0.160156 C 2.238281 -0.160156 2.265625 -0.152344 2.28125 -0.136719 C 2.300781 -0.125 2.308594 -0.105469 2.308594 -0.078125 C 2.308594 -0.0585938 2.300781 -0.0390625 2.28125 -0.0234375 C 2.265625 -0.0078125 2.238281 0 2.199219 0 L 1.605469 0 C 1.566406 0 1.539062 -0.0078125 1.523438 -0.0234375 C 1.507812 -0.0390625 1.5 -0.0585938 1.5 -0.078125 C 1.5 -0.105469 1.507812 -0.125 1.523438 -0.136719 C 1.539062 -0.152344 1.566406 -0.160156 1.605469 -0.160156 L 1.910156 -0.160156 L 1.691406 -0.742188 M 1.632812 -0.902344 L 1.191406 -2.0625 L 1.132812 -2.0625 L 0.703125 -0.902344 Z "/>
</g>
<g id="glyph-0-1">
<path d="M 1.714844 0 L 1.714844 -0.234375 C 1.496094 -0.0351562 1.257812 0.0625 1.007812 0.0625 C 0.851562 0.0625 0.730469 0.0195312 0.652344 -0.0664062 C 0.546875 -0.175781 0.492188 -0.304688 0.492188 -0.453125 L 0.492188 -1.484375 L 0.277344 -1.484375 C 0.242188 -1.484375 0.214844 -1.492188 0.199219 -1.507812 C 0.179688 -1.519531 0.171875 -1.539062 0.171875 -1.566406 C 0.171875 -1.585938 0.179688 -1.605469 0.199219 -1.621094 C 0.214844 -1.636719 0.242188 -1.644531 0.277344 -1.644531 L 0.652344 -1.644531 L 0.652344 -0.453125 C 0.652344 -0.351562 0.6875 -0.265625 0.753906 -0.199219 C 0.816406 -0.128906 0.898438 -0.0976562 1 -0.0976562 C 1.257812 -0.0976562 1.496094 -0.214844 1.714844 -0.453125 L 1.714844 -1.484375 L 1.417969 -1.484375 C 1.378906 -1.484375 1.351562 -1.492188 1.335938 -1.507812 C 1.320312 -1.519531 1.3125 -1.539062 1.3125 -1.566406 C 1.3125 -1.585938 1.320312 -1.605469 1.335938 -1.621094 C 1.351562 -1.636719 1.378906 -1.644531 1.417969 -1.644531 L 1.871094 -1.644531 L 1.871094 -0.160156 L 2.007812 -0.160156 C 2.046875 -0.160156 2.074219 -0.152344 2.089844 -0.136719 C 2.105469 -0.125 2.113281 -0.105469 2.113281 -0.078125 C 2.113281 -0.0585938 2.105469 -0.0390625 2.089844 -0.0234375 C 2.074219 -0.0078125 2.046875 0 2.007812 0 Z "/>
</g>
<g id="glyph-0-2">
<path d="M 1.949219 -2.382812 L 1.949219 -0.160156 L 2.160156 -0.160156 C 2.199219 -0.160156 2.226562 -0.152344 2.246094 -0.136719 C 2.261719 -0.125 2.269531 -0.105469 2.269531 -0.078125 C 2.269531 -0.0585938 2.261719 -0.0390625 2.246094 -0.0234375 C 2.226562 -0.0078125 2.199219 0 2.160156 0 L 1.785156 0 L 1.785156 -0.316406 C 1.601562 -0.0625 1.367188 0.0625 1.082031 0.0625 C 0.9375 0.0625 0.800781 0.0234375 0.667969 -0.0507812 C 0.535156 -0.128906 0.429688 -0.238281 0.355469 -0.378906 C 0.277344 -0.523438 0.238281 -0.667969 0.238281 -0.820312 C 0.238281 -0.96875 0.277344 -1.117188 0.355469 -1.257812 C 0.429688 -1.398438 0.535156 -1.507812 0.667969 -1.585938 C 0.800781 -1.664062 0.9375 -1.703125 1.085938 -1.703125 C 1.363281 -1.703125 1.597656 -1.574219 1.785156 -1.320312 L 1.785156 -2.222656 L 1.574219 -2.222656 C 1.535156 -2.222656 1.507812 -2.230469 1.492188 -2.246094 C 1.472656 -2.261719 1.464844 -2.28125 1.464844 -2.304688 C 1.464844 -2.328125 1.472656 -2.34375 1.492188 -2.359375 C 1.507812 -2.375 1.535156 -2.382812 1.574219 -2.382812 L 1.949219 -2.382812 M 1.785156 -0.820312 C 1.785156 -1.019531 1.71875 -1.191406 1.582031 -1.332031 C 1.445312 -1.46875 1.28125 -1.539062 1.09375 -1.539062 C 0.902344 -1.539062 0.742188 -1.46875 0.605469 -1.332031 C 0.46875 -1.191406 0.398438 -1.019531 0.398438 -0.820312 C 0.398438 -0.617188 0.46875 -0.445312 0.605469 -0.308594 C 0.742188 -0.167969 0.902344 -0.0976562 1.09375 -0.0976562 C 1.28125 -0.0976562 1.445312 -0.167969 1.582031 -0.308594 C 1.71875 -0.445312 1.785156 -0.617188 1.785156 -0.820312 Z "/>
</g>
<g id="glyph-0-3">
<path d="M 1.246094 -2.464844 L 1.246094 -2.050781 L 1.011719 -2.050781 L 1.011719 -2.464844 L 1.246094 -2.464844 M 1.25 -1.644531 L 1.25 -0.160156 L 1.878906 -0.160156 C 1.917969 -0.160156 1.945312 -0.152344 1.960938 -0.136719 C 1.976562 -0.125 1.988281 -0.105469 1.988281 -0.078125 C 1.988281 -0.0585938 1.976562 -0.0390625 1.960938 -0.0234375 C 1.945312 -0.0078125 1.917969 0 1.878906 0 L 0.464844 0 C 0.425781 0 0.398438 -0.0078125 0.382812 -0.0234375 C 0.367188 -0.0390625 0.359375 -0.0585938 0.359375 -0.078125 C 0.359375 -0.105469 0.367188 -0.125 0.382812 -0.136719 C 0.398438 -0.152344 0.425781 -0.160156 0.464844 -0.160156 L 1.09375 -0.160156 L 1.09375 -1.484375 L 0.625 -1.484375 C 0.589844 -1.484375 0.5625 -1.492188 0.542969 -1.507812 C 0.527344 -1.519531 0.519531 -1.539062 0.519531 -1.5625 C 0.519531 -1.585938 0.527344 -1.605469 0.542969 -1.621094 C 0.558594 -1.636719 0.585938 -1.644531 0.625 -1.644531 Z "/>
</g>
<g id="glyph-0-4">
<path d="M 0.839844 -1.644531 L 1.707031 -1.644531 C 1.742188 -1.644531 1.769531 -1.636719 1.785156 -1.621094 C 1.804688 -1.605469 1.8125 -1.585938 1.8125 -1.5625 C 1.8125 -1.539062 1.804688 -1.519531 1.785156 -1.507812 C 1.769531 -1.492188 1.742188 -1.484375 1.707031 -1.484375 L 0.839844 -1.484375 L 0.839844 -0.421875 C 0.839844 -0.328125 0.875 -0.25 0.949219 -0.191406 C 1.023438 -0.128906 1.132812 -0.0976562 1.277344 -0.0976562 C 1.382812 -0.0976562 1.5 -0.113281 1.625 -0.144531 C 1.75 -0.175781 1.847656 -0.214844 1.917969 -0.253906 C 1.945312 -0.269531 1.964844 -0.277344 1.980469 -0.277344 C 2 -0.277344 2.019531 -0.269531 2.035156 -0.253906 C 2.050781 -0.238281 2.058594 -0.222656 2.058594 -0.199219 C 2.058594 -0.179688 2.046875 -0.164062 2.03125 -0.144531 C 1.992188 -0.105469 1.894531 -0.0585938 1.738281 -0.0117188 C 1.582031 0.0390625 1.429688 0.0625 1.289062 0.0625 C 1.101562 0.0625 0.953125 0.0195312 0.84375 -0.0703125 C 0.734375 -0.15625 0.679688 -0.273438 0.679688 -0.421875 L 0.679688 -1.484375 L 0.382812 -1.484375 C 0.34375 -1.484375 0.320312 -1.492188 0.300781 -1.507812 C 0.285156 -1.519531 0.277344 -1.539062 0.277344 -1.566406 C 0.277344 -1.585938 0.285156 -1.605469 0.300781 -1.621094 C 0.320312 -1.636719 0.34375 -1.644531 0.382812 -1.644531 L 0.679688 -1.644531 L 0.679688 -2.117188 C 0.679688 -2.152344 0.6875 -2.179688 0.699219 -2.195312 C 0.714844 -2.214844 0.734375 -2.222656 0.757812 -2.222656 C 0.78125 -2.222656 0.800781 -2.214844 0.816406 -2.195312 C 0.832031 -2.179688 0.839844 -2.152344 0.839844 -2.117188 Z "/>
</g>
<g id="glyph-0-5">
</g>
<g id="glyph-0-6">
<path d="M 1.246094 -2.0625 L 1.246094 -0.160156 L 1.660156 -0.160156 C 1.699219 -0.160156 1.726562 -0.152344 1.742188 -0.136719 C 1.757812 -0.125 1.765625 -0.105469 1.765625 -0.078125 C 1.765625 -0.0585938 1.757812 -0.0390625 1.742188 -0.0234375 C 1.726562 -0.0078125 1.699219 0 1.660156 0 L 0.671875 0 C 0.632812 0 0.605469 -0.0078125 0.589844 -0.0234375 C 0.570312 -0.0390625 0.5625 -0.0585938 0.5625 -0.078125 C 0.5625 -0.105469 0.570312 -0.125 0.589844 -0.136719 C 0.605469 -0.152344 0.632812 -0.160156 0.671875 -0.160156 L 1.085938 -0.160156 L 1.085938 -2.0625 L 0.429688 -2.0625 L 0.429688 -1.511719 C 0.429688 -1.46875 0.421875 -1.441406 0.410156 -1.425781 C 0.394531 -1.410156 0.375 -1.402344 0.351562 -1.402344 C 0.328125 -1.402344 0.308594 -1.410156 0.292969 -1.425781 C 0.277344 -1.441406 0.273438 -1.46875 0.273438 -1.511719 L 0.273438 -2.222656 L 2.058594 -2.222656 L 2.058594 -1.511719 C 2.058594 -1.46875 2.050781 -1.441406 2.035156 -1.425781 C 2.023438 -1.410156 2.003906 -1.402344 1.980469 -1.402344 C 1.953125 -1.402344 1.933594 -1.410156 1.921875 -1.425781 C 1.90625 -1.441406 1.898438 -1.46875 1.898438 -1.511719 L 1.898438 -2.0625 Z "/>
</g>
<g id="glyph-0-7">
<path d="M 0.976562 -1.644531 L 0.976562 -1.242188 C 1.183594 -1.429688 1.339844 -1.550781 1.441406 -1.605469 C 1.546875 -1.65625 1.640625 -1.683594 1.726562 -1.683594 C 1.824219 -1.683594 1.910156 -1.652344 1.992188 -1.589844 C 2.074219 -1.523438 2.117188 -1.476562 2.117188 -1.441406 C 2.117188 -1.417969 2.109375 -1.398438 2.09375 -1.382812 C 2.074219 -1.367188 2.054688 -1.359375 2.03125 -1.359375 C 2.019531 -1.359375 2.007812 -1.363281 2 -1.367188 C 1.992188 -1.371094 1.972656 -1.386719 1.949219 -1.410156 C 1.90625 -1.453125 1.867188 -1.484375 1.835938 -1.5 C 1.800781 -1.515625 1.769531 -1.523438 1.738281 -1.523438 C 1.667969 -1.523438 1.585938 -1.496094 1.484375 -1.441406 C 1.386719 -1.386719 1.21875 -1.25 0.976562 -1.03125 L 0.976562 -0.160156 L 1.683594 -0.160156 C 1.722656 -0.160156 1.75 -0.152344 1.765625 -0.136719 C 1.78125 -0.125 1.789062 -0.105469 1.789062 -0.078125 C 1.789062 -0.0585938 1.78125 -0.0390625 1.765625 -0.0234375 C 1.75 -0.0078125 1.722656 0 1.683594 0 L 0.429688 0 C 0.394531 0 0.367188 -0.0078125 0.347656 -0.0234375 C 0.332031 -0.0351562 0.324219 -0.0546875 0.324219 -0.078125 C 0.324219 -0.0976562 0.332031 -0.117188 0.347656 -0.132812 C 0.363281 -0.148438 0.390625 -0.152344 0.429688 -0.152344 L 0.816406 -0.152344 L 0.816406 -1.484375 L 0.523438 -1.484375 C 0.484375 -1.484375 0.457031 -1.492188 0.441406 -1.507812 C 0.425781 -1.519531 0.414062 -1.539062 0.414062 -1.566406 C 0.414062 -1.585938 0.421875 -1.605469 0.441406 -1.621094 C 0.457031 -1.636719 0.484375 -1.644531 0.523438 -1.644531 Z "/>
</g>
<g id="glyph-0-8">
<path d="M 1.625 0 L 1.625 -0.230469 C 1.394531 -0.0351562 1.144531 0.0625 0.882812 0.0625 C 0.691406 0.0625 0.542969 0.015625 0.433594 -0.0820312 C 0.328125 -0.179688 0.273438 -0.296875 0.273438 -0.4375 C 0.273438 -0.59375 0.34375 -0.726562 0.484375 -0.84375 C 0.628906 -0.957031 0.835938 -1.015625 1.105469 -1.015625 C 1.179688 -1.015625 1.261719 -1.011719 1.347656 -1 C 1.433594 -0.992188 1.527344 -0.976562 1.625 -0.957031 L 1.625 -1.214844 C 1.625 -1.304688 1.585938 -1.378906 1.503906 -1.441406 C 1.421875 -1.507812 1.300781 -1.539062 1.140625 -1.539062 C 1.015625 -1.539062 0.839844 -1.503906 0.617188 -1.433594 C 0.578125 -1.417969 0.550781 -1.414062 0.539062 -1.414062 C 0.519531 -1.414062 0.5 -1.421875 0.488281 -1.4375 C 0.472656 -1.449219 0.464844 -1.46875 0.464844 -1.492188 C 0.464844 -1.515625 0.472656 -1.53125 0.484375 -1.542969 C 0.503906 -1.5625 0.574219 -1.589844 0.699219 -1.621094 C 0.894531 -1.675781 1.046875 -1.703125 1.148438 -1.703125 C 1.347656 -1.703125 1.503906 -1.652344 1.617188 -1.550781 C 1.730469 -1.453125 1.785156 -1.339844 1.785156 -1.214844 L 1.785156 -0.160156 L 2 -0.160156 C 2.039062 -0.160156 2.066406 -0.152344 2.082031 -0.136719 C 2.101562 -0.125 2.109375 -0.105469 2.109375 -0.078125 C 2.109375 -0.0585938 2.101562 -0.0390625 2.082031 -0.0234375 C 2.066406 -0.0078125 2.039062 0 2 0 L 1.625 0 M 1.625 -0.792969 C 1.550781 -0.816406 1.472656 -0.832031 1.386719 -0.839844 C 1.304688 -0.851562 1.214844 -0.855469 1.125 -0.855469 C 0.890625 -0.855469 0.710938 -0.804688 0.582031 -0.707031 C 0.480469 -0.632812 0.433594 -0.542969 0.433594 -0.4375 C 0.433594 -0.34375 0.46875 -0.261719 0.546875 -0.195312 C 0.621094 -0.128906 0.730469 -0.0976562 0.875 -0.0976562 C 1.011719 -0.0976562 1.140625 -0.125 1.261719 -0.179688 C 1.378906 -0.234375 1.5 -0.320312 1.625 -0.441406 Z "/>
</g>
<g id="glyph-0-9">
<path d="M 1.246094 -2.382812 L 1.246094 -0.160156 L 1.875 -0.160156 C 1.914062 -0.160156 1.941406 -0.152344 1.957031 -0.136719 C 1.972656 -0.125 1.984375 -0.105469 1.984375 -0.078125 C 1.984375 -0.0585938 1.972656 -0.0390625 1.957031 -0.0234375 C 1.941406 -0.0078125 1.914062 0 1.875 0 L 0.460938 0 C 0.421875 0 0.394531 -0.0078125 0.378906 -0.0234375 C 0.363281 -0.0390625 0.355469 -0.0585938 0.355469 -0.078125 C 0.355469 -0.105469 0.363281 -0.125 0.378906 -0.136719 C 0.394531 -0.152344 0.421875 -0.160156 0.460938 -0.160156 L 1.089844 -0.160156 L 1.089844 -2.222656 L 0.628906 -2.222656 C 0.589844 -2.222656 0.5625 -2.230469 0.546875 -2.246094 C 0.527344 -2.261719 0.519531 -2.28125 0.519531 -2.304688 C 0.519531 -2.328125 0.527344 -2.34375 0.546875 -2.359375 C 0.5625 -2.375 0.589844 -2.382812 0.628906 -2.382812 Z "/>
</g>
<g id="glyph-0-10">
<path d="M 1.0625 -1.484375 L 1.0625 -0.160156 L 1.761719 -0.160156 C 1.800781 -0.160156 1.828125 -0.152344 1.84375 -0.136719 C 1.859375 -0.125 1.867188 -0.105469 1.867188 -0.078125 C 1.867188 -0.0585938 1.859375 -0.0390625 1.84375 -0.0234375 C 1.828125 -0.0078125 1.800781 0 1.761719 0 L 0.515625 0 C 0.476562 0 0.449219 -0.0078125 0.433594 -0.0234375 C 0.417969 -0.0390625 0.410156 -0.0585938 0.410156 -0.078125 C 0.410156 -0.105469 0.417969 -0.125 0.433594 -0.136719 C 0.449219 -0.152344 0.476562 -0.160156 0.515625 -0.160156 L 0.898438 -0.160156 L 0.898438 -1.484375 L 0.554688 -1.484375 C 0.515625 -1.484375 0.488281 -1.492188 0.472656 -1.507812 C 0.457031 -1.519531 0.449219 -1.539062 0.449219 -1.566406 C 0.449219 -1.585938 0.457031 -1.605469 0.472656 -1.621094 C 0.488281 -1.636719 0.515625 -1.644531 0.554688 -1.644531 L 0.898438 -1.644531 L 0.898438 -1.886719 C 0.898438 -2.019531 0.953125 -2.136719 1.0625 -2.234375 C 1.171875 -2.332031 1.316406 -2.382812 1.496094 -2.382812 C 1.648438 -2.382812 1.808594 -2.371094 1.980469 -2.339844 C 2.042969 -2.332031 2.082031 -2.320312 2.09375 -2.304688 C 2.109375 -2.292969 2.117188 -2.273438 2.117188 -2.25 C 2.117188 -2.226562 2.109375 -2.207031 2.09375 -2.195312 C 2.078125 -2.179688 2.058594 -2.171875 2.03125 -2.171875 C 2.023438 -2.171875 2.003906 -2.175781 1.980469 -2.179688 C 1.789062 -2.207031 1.628906 -2.222656 1.496094 -2.222656 C 1.355469 -2.222656 1.25 -2.1875 1.175781 -2.121094 C 1.097656 -2.050781 1.0625 -1.972656 1.0625 -1.886719 L 1.0625 -1.644531 L 1.808594 -1.644531 C 1.847656 -1.644531 1.875 -1.636719 1.890625 -1.621094 C 1.90625 -1.605469 1.914062 -1.585938 1.914062 -1.5625 C 1.914062 -1.539062 1.90625 -1.519531 1.890625 -1.507812 C 1.875 -1.492188 1.847656 -1.484375 1.808594 -1.484375 Z "/>
</g>
<g id="glyph-0-11">
<path d="M 1.277344 -0.859375 L 2.007812 -0.160156 C 2.054688 -0.160156 2.085938 -0.15625 2.097656 -0.152344 C 2.109375 -0.148438 2.121094 -0.140625 2.132812 -0.125 C 2.140625 -0.113281 2.144531 -0.0976562 2.144531 -0.078125 C 2.144531 -0.0585938 2.136719 -0.0390625 2.121094 -0.0234375 C 2.105469 -0.0078125 2.078125 0 2.039062 0 L 1.523438 0 C 1.484375 0 1.457031 -0.0078125 1.441406 -0.0234375 C 1.425781 -0.0390625 1.417969 -0.0585938 1.417969 -0.078125 C 1.417969 -0.105469 1.425781 -0.125 1.441406 -0.136719 C 1.457031 -0.152344 1.484375 -0.160156 1.523438 -0.160156 L 1.789062 -0.160156 L 1.167969 -0.753906 L 0.550781 -0.160156 L 0.816406 -0.160156 C 0.855469 -0.160156 0.882812 -0.152344 0.898438 -0.136719 C 0.914062 -0.125 0.921875 -0.105469 0.921875 -0.078125 C 0.921875 -0.0585938 0.914062 -0.0390625 0.898438 -0.0234375 C 0.882812 -0.0078125 0.855469 0 0.816406 0 L 0.296875 0 C 0.261719 0 0.234375 -0.0078125 0.214844 -0.0234375 C 0.199219 -0.0390625 0.191406 -0.0585938 0.191406 -0.078125 C 0.191406 -0.0976562 0.195312 -0.113281 0.207031 -0.125 C 0.214844 -0.140625 0.226562 -0.148438 0.238281 -0.152344 C 0.25 -0.15625 0.28125 -0.160156 0.328125 -0.160156 L 1.058594 -0.859375 L 0.410156 -1.484375 C 0.363281 -1.484375 0.335938 -1.484375 0.324219 -1.492188 C 0.3125 -1.496094 0.300781 -1.503906 0.292969 -1.519531 C 0.28125 -1.53125 0.277344 -1.546875 0.277344 -1.566406 C 0.277344 -1.585938 0.285156 -1.605469 0.300781 -1.621094 C 0.320312 -1.636719 0.347656 -1.644531 0.386719 -1.644531 L 0.820312 -1.644531 C 0.859375 -1.644531 0.886719 -1.636719 0.902344 -1.621094 C 0.917969 -1.605469 0.925781 -1.585938 0.925781 -1.5625 C 0.925781 -1.539062 0.917969 -1.519531 0.902344 -1.507812 C 0.886719 -1.492188 0.859375 -1.484375 0.820312 -1.484375 L 0.628906 -1.484375 L 1.167969 -0.964844 L 1.710938 -1.484375 L 1.519531 -1.484375 C 1.480469 -1.484375 1.453125 -1.492188 1.4375 -1.507812 C 1.417969 -1.519531 1.410156 -1.539062 1.410156 -1.566406 C 1.410156 -1.585938 1.417969 -1.605469 1.4375 -1.621094 C 1.453125 -1.636719 1.480469 -1.644531 1.519531 -1.644531 L 1.953125 -1.644531 C 1.992188 -1.644531 2.019531 -1.636719 2.035156 -1.621094 C 2.050781 -1.605469 2.058594 -1.585938 2.058594 -1.5625 C 2.058594 -1.546875 2.054688 -1.53125 2.046875 -1.519531 C 2.035156 -1.503906 2.027344 -1.496094 2.015625 -1.492188 C 2 -1.484375 1.972656 -1.484375 1.925781 -1.484375 Z "/>
</g>
<g id="glyph-0-12">
<path d="M 2.03125 -0.785156 L 0.40625 -0.785156 C 0.433594 -0.578125 0.519531 -0.410156 0.664062 -0.285156 C 0.808594 -0.160156 0.988281 -0.0976562 1.203125 -0.0976562 C 1.320312 -0.0976562 1.445312 -0.117188 1.578125 -0.15625 C 1.707031 -0.195312 1.8125 -0.246094 1.894531 -0.3125 C 1.917969 -0.332031 1.941406 -0.339844 1.957031 -0.339844 C 1.976562 -0.339844 1.996094 -0.332031 2.011719 -0.316406 C 2.027344 -0.300781 2.035156 -0.28125 2.035156 -0.261719 C 2.035156 -0.238281 2.023438 -0.21875 2.003906 -0.199219 C 1.941406 -0.132812 1.835938 -0.0742188 1.679688 -0.0195312 C 1.523438 0.0351562 1.367188 0.0625 1.203125 0.0625 C 0.929688 0.0625 0.699219 -0.0273438 0.515625 -0.207031 C 0.335938 -0.386719 0.242188 -0.601562 0.242188 -0.855469 C 0.242188 -1.089844 0.328125 -1.285156 0.5 -1.453125 C 0.671875 -1.617188 0.882812 -1.703125 1.136719 -1.703125 C 1.398438 -1.703125 1.613281 -1.617188 1.78125 -1.445312 C 1.949219 -1.277344 2.03125 -1.054688 2.03125 -0.785156 M 1.867188 -0.945312 C 1.835938 -1.121094 1.753906 -1.265625 1.617188 -1.375 C 1.484375 -1.484375 1.324219 -1.539062 1.136719 -1.539062 C 0.953125 -1.539062 0.792969 -1.484375 0.65625 -1.375 C 0.523438 -1.269531 0.4375 -1.125 0.40625 -0.945312 Z "/>
</g>
<g id="glyph-0-13">
<path d="M 1.695312 -1.539062 C 1.695312 -1.578125 1.703125 -1.601562 1.714844 -1.621094 C 1.730469 -1.636719 1.75 -1.644531 1.773438 -1.644531 C 1.796875 -1.644531 1.816406 -1.636719 1.832031 -1.621094 C 1.847656 -1.601562 1.855469 -1.574219 1.855469 -1.535156 L 1.855469 -1.261719 C 1.855469 -1.226562 1.847656 -1.199219 1.832031 -1.179688 C 1.816406 -1.164062 1.796875 -1.15625 1.773438 -1.15625 C 1.753906 -1.15625 1.734375 -1.164062 1.71875 -1.175781 C 1.703125 -1.191406 1.695312 -1.214844 1.695312 -1.246094 C 1.6875 -1.320312 1.648438 -1.382812 1.578125 -1.433594 C 1.472656 -1.503906 1.335938 -1.539062 1.164062 -1.539062 C 0.984375 -1.539062 0.847656 -1.503906 0.75 -1.433594 C 0.671875 -1.378906 0.636719 -1.316406 0.636719 -1.25 C 0.636719 -1.171875 0.679688 -1.109375 0.769531 -1.058594 C 0.828125 -1.023438 0.945312 -0.996094 1.113281 -0.976562 C 1.335938 -0.953125 1.488281 -0.925781 1.578125 -0.894531 C 1.699219 -0.851562 1.789062 -0.789062 1.851562 -0.710938 C 1.910156 -0.632812 1.941406 -0.550781 1.941406 -0.457031 C 1.941406 -0.320312 1.875 -0.203125 1.746094 -0.0976562 C 1.613281 0.0117188 1.421875 0.0625 1.171875 0.0625 C 0.917969 0.0625 0.714844 0 0.550781 -0.128906 C 0.550781 -0.0859375 0.550781 -0.0585938 0.546875 -0.046875 C 0.539062 -0.03125 0.53125 -0.0234375 0.515625 -0.0117188 C 0.503906 -0.00390625 0.488281 0 0.472656 0 C 0.449219 0 0.429688 -0.0078125 0.414062 -0.0234375 C 0.402344 -0.0429688 0.394531 -0.0703125 0.394531 -0.105469 L 0.394531 -0.433594 C 0.394531 -0.472656 0.398438 -0.5 0.414062 -0.515625 C 0.429688 -0.53125 0.449219 -0.542969 0.472656 -0.542969 C 0.496094 -0.542969 0.515625 -0.535156 0.53125 -0.515625 C 0.546875 -0.5 0.554688 -0.480469 0.554688 -0.453125 C 0.554688 -0.394531 0.570312 -0.347656 0.597656 -0.308594 C 0.640625 -0.246094 0.714844 -0.195312 0.808594 -0.15625 C 0.90625 -0.117188 1.027344 -0.0976562 1.167969 -0.0976562 C 1.375 -0.0976562 1.527344 -0.136719 1.628906 -0.210938 C 1.730469 -0.289062 1.78125 -0.371094 1.78125 -0.457031 C 1.78125 -0.554688 1.730469 -0.636719 1.628906 -0.695312 C 1.523438 -0.753906 1.371094 -0.792969 1.175781 -0.816406 C 0.976562 -0.835938 0.835938 -0.863281 0.75 -0.894531 C 0.664062 -0.925781 0.59375 -0.976562 0.546875 -1.042969 C 0.5 -1.109375 0.476562 -1.179688 0.476562 -1.253906 C 0.476562 -1.390625 0.542969 -1.5 0.675781 -1.582031 C 0.808594 -1.660156 0.96875 -1.703125 1.15625 -1.703125 C 1.375 -1.703125 1.554688 -1.648438 1.695312 -1.539062 Z "/>
</g>
</g>
</defs>
<g fill="rgb(100%, 100%, 100%)" fill-opacity="1">
<use xlink:href="#glyph-0-0" x="30" y="23.237305"/>
<use xlink:href="#glyph-0-1" x="32" y="23.237305"/>
<use xlink:href="#glyph-0-2" x="34" y="23.237305"/>
<use xlink:href="#glyph-0-3" x="36" y="23.237305"/>
<use xlink:href="#glyph-0-4" x="38" y="23.237305"/>
<use xlink:href="#glyph-0-5" x="40" y="23.237305"/>
<use xlink:href="#glyph-0-6" x="42" y="23.237305"/>
<use xlink:href="#glyph-0-7" x="44" y="23.237305"/>
<use xlink:href="#glyph-0-8" x="46" y="23.237305"/>
<use xlink:href="#glyph-0-3" x="48" y="23.237305"/>
<use xlink:href="#glyph-0-9" x="50" y="23.237305"/>
<use xlink:href="#glyph-0-5" x="52" y="23.237305"/>
<use xlink:href="#glyph-0-10" x="54" y="23.237305"/>
<use xlink:href="#glyph-0-3" x="56" y="23.237305"/>
<use xlink:href="#glyph-0-11" x="58" y="23.237305"/>
<use xlink:href="#glyph-0-12" x="60" y="23.237305"/>
<use xlink:href="#glyph-0-13" x="62" y="23.237305"/>
<use xlink:href="#glyph-0-5" x="64" y="23.237305"/>
</g>
</svg>
